<?xml version="1.0" encoding="UTF-8" standalone="no"?>
<!-- Created with Inkscape (http://www.inkscape.org/) -->

<svg
   xmlns:dc="http://purl.org/dc/elements/1.1/"
   xmlns:cc="http://creativecommons.org/ns#"
   xmlns:rdf="http://www.w3.org/1999/02/22-rdf-syntax-ns#"
   xmlns:svg="http://www.w3.org/2000/svg"
   xmlns="http://www.w3.org/2000/svg"
   xmlns:sodipodi="http://sodipodi.sourceforge.net/DTD/sodipodi-0.dtd"
   xmlns:inkscape="http://www.inkscape.org/namespaces/inkscape"
   width="1254.0912mm"
   height="787.68817mm"
   viewBox="0 0 4443.6302 2791.0211"
   id="svg2"
   version="1.1"
   inkscape:version="0.91 r13725"
   sodipodi:docname="chef.svg">
  <defs
     id="defs4" />
  <sodipodi:namedview
     id="base"
     pagecolor="#ffffff"
     bordercolor="#666666"
     borderopacity="1.0"
     inkscape:pageopacity="0.0"
     inkscape:pageshadow="2"
     inkscape:zoom="0.49497475"
     inkscape:cx="1150.9017"
     inkscape:cy="1232.0021"
     inkscape:document-units="px"
     inkscape:current-layer="layer1"
     showgrid="false"
     fit-margin-top="0"
     fit-margin-left="0"
     fit-margin-right="0"
     fit-margin-bottom="0"
     inkscape:window-width="1536"
     inkscape:window-height="841"
     inkscape:window-x="-8"
     inkscape:window-y="-8"
     inkscape:window-maximized="1"
     showguides="false" />
  <metadata
     id="metadata7">
    <rdf:RDF>
      <cc:Work
         rdf:about="">
        <dc:format>image/svg+xml</dc:format>
        <dc:type
           rdf:resource="http://purl.org/dc/dcmitype/StillImage" />
        <dc:title></dc:title>
      </cc:Work>
    </rdf:RDF>
  </metadata>
  <g
     inkscape:label="Layer 1"
     inkscape:groupmode="layer"
     id="layer1"
     transform="translate(1427.8354,856.30579)">
    <g
       id="g4836">
      <path
         inkscape:connector-curvature="0"
         id="path4797"
         d="m -553.07875,1073.158 c -2.72201,0 -4.91281,2.2446 -4.91281,5.0312 l 0,40.4031 c -0.059,0.3032 -0.0973,0.6126 -0.0973,0.9339 l 0,17.1683 c 0,0.546 0.11056,1.0635 0.27102,1.5553 a 107.06455,29.287699 0 0 0 -0.27102,1.4751 107.06455,29.287699 0 0 0 107.06617,29.2878 107.06455,29.287699 0 0 0 107.06429,-29.2878 107.06455,29.287699 0 0 0 -0.002,-0.018 c 0.63431,-0.8418 1.02119,-1.8771 1.02109,-3.0128 l 0,-17.1683 c 0,-0.5468 -0.10818,-1.0609 -0.26903,-1.5533 a 107.06455,29.287699 0 0 0 0.26903,-1.4752 107.06455,29.287699 0 0 0 -49.45052,-24.6826 l 0,-13.6259 c 0,-2.7866 -2.19072,-5.0312 -4.91276,-5.0312 l -155.77617,0 z"
         style="opacity:1;fill:#502d16;fill-opacity:1;stroke:#000000;stroke-width:3.01374245;stroke-miterlimit:4;stroke-dasharray:none;stroke-dashoffset:0;stroke-opacity:1" />
      <path
         inkscape:connector-curvature="0"
         id="path4757"
         d="m -569.10909,869.08485 1.66237,219.84245 c 0,0 93.09175,28.551 209.45645,1.4276 l -10e-6,-212.70475 z"
         style="color:#000000;clip-rule:nonzero;display:inline;overflow:visible;visibility:visible;opacity:1;isolation:auto;mix-blend-mode:normal;color-interpolation:sRGB;color-interpolation-filters:linearRGB;solid-color:#000000;solid-opacity:1;fill:#f9f9f9;fill-opacity:1;fill-rule:evenodd;stroke:#000000;stroke-width:3.23501611;stroke-linecap:butt;stroke-linejoin:miter;stroke-miterlimit:4;stroke-dasharray:none;stroke-dashoffset:0;stroke-opacity:1;color-rendering:auto;image-rendering:auto;shape-rendering:auto;text-rendering:auto;enable-background:accumulate" />
    </g>
    <g
       id="g4840">
      <path
         inkscape:connector-curvature="0"
         id="path4797-9"
         d="m -275.55479,1074.5905 c -2.59512,0 -4.6837,2.2462 -4.6837,5.0348 l 0,40.4327 c -0.0559,0.3034 -0.0932,0.613 -0.0932,0.9346 l 0,17.1808 c 0,0.5464 0.10537,1.0643 0.25834,1.5564 a 102.07265,29.309094 0 0 0 -0.25834,1.4762 102.07265,29.309094 0 0 0 102.0742,29.3092 102.07265,29.309094 0 0 0 102.072335,-29.3092 102.07265,29.309094 0 0 0 0,-0.018 c 0.604736,-0.8423 0.973577,-1.8785 0.973484,-3.015 l 0,-17.1808 c 0,-0.5473 -0.103134,-1.0617 -0.256484,-1.5545 a 102.07265,29.309094 0 0 0 0.256484,-1.4762 102.07265,29.309094 0 0 0 -47.144889,-24.7007 l 0,-13.6359 c 0,-2.7886 -2.08858,-5.0348 -4.6837,-5.0348 l -148.51308,0 z"
         style="opacity:1;fill:#502d16;fill-opacity:1;stroke:#000000;stroke-width:2.94372034;stroke-miterlimit:4;stroke-dasharray:none;stroke-dashoffset:0;stroke-opacity:1" />
      <path
         inkscape:connector-curvature="0"
         id="path4757-5"
         d="m -288.54972,868.83574 1.4285,219.99996 c 0,0 80,28.5714 180.0001,1.4286 l 0,-212.85713 c 0,0 -25.00006,-90.16518 -181.4286,-8.57143 z"
         style="color:#000000;clip-rule:nonzero;display:inline;overflow:visible;visibility:visible;opacity:1;isolation:auto;mix-blend-mode:normal;color-interpolation:sRGB;color-interpolation-filters:linearRGB;solid-color:#000000;solid-opacity:1;fill:#f9f9f9;fill-opacity:1;fill-rule:evenodd;stroke:#000000;stroke-width:3;stroke-linecap:butt;stroke-linejoin:miter;stroke-miterlimit:4;stroke-dasharray:none;stroke-dashoffset:0;stroke-opacity:1;color-rendering:auto;image-rendering:auto;shape-rendering:auto;text-rendering:auto;enable-background:accumulate" />
    </g>
    <path
       style="color:#000000;clip-rule:nonzero;display:inline;overflow:visible;visibility:visible;opacity:1;isolation:auto;mix-blend-mode:normal;color-interpolation:sRGB;color-interpolation-filters:linearRGB;solid-color:#000000;solid-opacity:1;fill:#f9f9f9;fill-opacity:1;fill-rule:evenodd;stroke:#000000;stroke-width:2.93354988;stroke-linecap:butt;stroke-linejoin:miter;stroke-miterlimit:4;stroke-dasharray:none;stroke-dashoffset:0;stroke-opacity:1;color-rendering:auto;image-rendering:auto;shape-rendering:auto;text-rendering:auto;enable-background:accumulate"
       d="m -48.925893,571.85728 5.463369,290.03064 -50.536119,14.28725 C -316.63096,917.60805 -622.57959,871.88902 -622.57959,871.88902 L -623.94543,564.71368 -779.5251,609.3983 C -852.46006,103.105 148.11974,205.55615 43.333287,589.19306 Z"
       id="path4774"
       inkscape:connector-curvature="0"
       sodipodi:nodetypes="cccccccc" />
    <g
       id="g4227"
       transform="matrix(0.16052833,0.37938483,-0.37938483,0.16052833,-394.7948,283.99847)">
      <path
         id="rect4148"
         transform="translate(-1427.8354,-856.30579)"
         d="m 2577.9082,1203.0605 0,509.1172 278.8027,0 0,-509.1172 -278.8027,0 z m 46.4688,32.3262 a 18.182745,18.182745 0 0 1 18.1816,18.1817 18.182745,18.182745 0 0 1 -18.1816,18.1836 18.182745,18.182745 0 0 1 -18.1836,-18.1836 18.182745,18.182745 0 0 1 18.1836,-18.1817 z"
         style="opacity:1;fill:#ececec;fill-opacity:1;stroke:#000000;stroke-width:3;stroke-miterlimit:4;stroke-dasharray:none;stroke-dashoffset:0;stroke-opacity:1"
         inkscape:connector-curvature="0" />
      <path
         inkscape:connector-curvature="0"
         id="path4152"
         d="m 1372.3075,346.75541 0,513.1575"
         style="color:#000000;clip-rule:nonzero;display:inline;overflow:visible;visibility:visible;opacity:1;isolation:auto;mix-blend-mode:normal;color-interpolation:sRGB;color-interpolation-filters:linearRGB;solid-color:#000000;solid-opacity:1;fill:none;fill-opacity:1;fill-rule:evenodd;stroke:#000000;stroke-width:3;stroke-linecap:butt;stroke-linejoin:miter;stroke-miterlimit:4;stroke-dasharray:none;stroke-dashoffset:0;stroke-opacity:1;color-rendering:auto;image-rendering:auto;shape-rendering:auto;text-rendering:auto;enable-background:accumulate" />
      <path
         transform="translate(-1427.8354,-856.30579)"
         inkscape:connector-curvature="0"
         id="path4154"
         d="m 2803.7742,1456.9544 0,-252.5381 24.2437,0 24.2437,0 0,252.5381 0,252.5381 -24.2437,0 -24.2437,0 0,-252.5381 z"
         style="opacity:1;fill:#b3b3b3;fill-opacity:1;stroke:#000000;stroke-width:0.40000001;stroke-miterlimit:4;stroke-dasharray:none;stroke-dashoffset:0;stroke-opacity:1" />
      <path
         sodipodi:nodetypes="ccccc"
         inkscape:connector-curvature="0"
         id="path4161"
         d="m 1150.0739,855.87231 0,290.92389 98.9949,0 c 0,0 -45.4568,-142.4315 -29.2944,-211.12184 l 0,-80.81222 z"
         style="color:#000000;clip-rule:nonzero;display:inline;overflow:visible;visibility:visible;opacity:1;isolation:auto;mix-blend-mode:normal;color-interpolation:sRGB;color-interpolation-filters:linearRGB;solid-color:#000000;solid-opacity:1;fill:#c46700;fill-opacity:1;fill-rule:evenodd;stroke:#000000;stroke-width:3;stroke-linecap:butt;stroke-linejoin:miter;stroke-miterlimit:4;stroke-dasharray:none;stroke-dashoffset:0;stroke-opacity:1;color-rendering:auto;image-rendering:auto;shape-rendering:auto;text-rendering:auto;enable-background:accumulate" />
    </g>
    <path
       style="color:#000000;clip-rule:nonzero;display:inline;overflow:visible;visibility:visible;opacity:1;isolation:auto;mix-blend-mode:normal;color-interpolation:sRGB;color-interpolation-filters:linearRGB;solid-color:#000000;solid-opacity:1;fill:none;fill-opacity:1;fill-rule:evenodd;stroke:#000000;stroke-width:3;stroke-linecap:butt;stroke-linejoin:miter;stroke-miterlimit:4;stroke-dasharray:none;stroke-dashoffset:0;stroke-opacity:1;color-rendering:auto;image-rendering:auto;shape-rendering:auto;text-rendering:auto;enable-background:accumulate"
       d="m -276.43838,614.24539 c 0,0 -2.8572,62.8572 55.7142,61.4286 0,0 71.4286,5.71427 145.714303,-7.14288"
       id="path4706-4"
       inkscape:connector-curvature="0" />
    <g
       id="g4844"
       transform="matrix(0.9999312,-0.01173022,0.01173022,0.9999312,-8.2055488,-0.43759875)">
      <ellipse
         ry="40.593449"
         rx="62.736309"
         cy="897.57239"
         cx="-48.549702"
         id="path4776-6"
         style="opacity:1;fill:#a05a2c;fill-opacity:1;stroke:#000000;stroke-width:3.24166918;stroke-miterlimit:4;stroke-dasharray:none;stroke-dashoffset:0;stroke-opacity:1" />
      <path
         sodipodi:nodetypes="cccccccc"
         inkscape:connector-curvature="0"
         id="path4689-1"
         d="m -129.53655,543.21585 c 0,0 -28.52441,144.36832 32.090033,179.38832 0,0 3.565544,125.0716 4.754085,142.22426 54.671753,54.31678 98.6469615,55.74621 98.6469615,55.74621 0,0 45.1636435,-62.89315 39.2211265,-194.39697 0,0 11.885142,-81.47519 7.131058,-215.83781 0,0 -34.467017,-64.32252 -95.081393,-47.16984 0,0 -68.934081,5.71762 -86.761871,80.04583 z"
         style="color:#000000;clip-rule:nonzero;display:inline;overflow:visible;visibility:visible;opacity:1;isolation:auto;mix-blend-mode:normal;color-interpolation:sRGB;color-interpolation-filters:linearRGB;solid-color:#000000;solid-opacity:1;fill:#f9f9f9;fill-opacity:1;fill-rule:evenodd;stroke:#000000;stroke-width:3;stroke-linecap:butt;stroke-linejoin:miter;stroke-miterlimit:4;stroke-dasharray:none;stroke-dashoffset:0;stroke-opacity:1;color-rendering:auto;image-rendering:auto;shape-rendering:auto;text-rendering:auto;enable-background:accumulate" />
    </g>
    <g
       id="g4645"
       transform="translate(-26.661982,30.096424)">
      <path
         sodipodi:nodetypes="cscc"
         inkscape:connector-curvature="0"
         id="path4243-6"
         d="m -167.57511,173.32221 c 0,0 26.85106,-62.27298 67.00183,-58.22451 40.150835,4.04837 47.892219,22.86164 47.892219,22.86164 0,0 -58.702019,43.93655 -55.613509,114.78321 0,0 -96.16311,-57.95619 -59.28054,-79.42034 z"
         style="color:#000000;clip-rule:nonzero;display:inline;overflow:visible;visibility:visible;opacity:1;isolation:auto;mix-blend-mode:normal;color-interpolation:sRGB;color-interpolation-filters:linearRGB;solid-color:#000000;solid-opacity:1;fill:#925a34;fill-opacity:1;fill-rule:evenodd;stroke:#000000;stroke-width:2.6253686;stroke-linecap:butt;stroke-linejoin:miter;stroke-miterlimit:4;stroke-dasharray:none;stroke-dashoffset:0;stroke-opacity:1;color-rendering:auto;image-rendering:auto;shape-rendering:auto;text-rendering:auto;enable-background:accumulate" />
      <path
         sodipodi:nodetypes="csccccccscccc"
         inkscape:connector-curvature="0"
         id="path4408"
         d="m -162.12111,192.57235 c 37.14285,11.42857 54.02336,60.94452 54.02336,60.94452 0,0 19.432351,39.86323 13.049992,50.47651 -6.382372,10.61319 -17.305512,40.66659 -23.171482,87.05022 0,0 -3.93283,24.43413 -28.41916,50.46127 -29.80241,39.59033 -28.59055,67.79049 -55.88196,76.97647 l -68.69037,6.06095 c -25.28029,2.85994 -68.1777,-60.95311 -90.91372,-66.67008 -40.40612,-23.23353 -49.49745,-46.467 -49.49745,-46.467 -15.1523,-44.4468 -30.7738,-58.14947 -40.87532,-67.24077 -10.10153,-9.0914 1.94851,-77.528 1.94851,-77.528 0.0328,-0.20744 25.93418,-110.8915 140.57045,-86.20695 0,0 99.28572,-9.28571 147.85715,12.14286 z"
         style="color:#000000;clip-rule:nonzero;display:inline;overflow:visible;visibility:visible;opacity:1;isolation:auto;mix-blend-mode:normal;color-interpolation:sRGB;color-interpolation-filters:linearRGB;solid-color:#000000;solid-opacity:1;fill:#a05a2c;fill-opacity:1;fill-rule:evenodd;stroke:#000000;stroke-width:3;stroke-linecap:butt;stroke-linejoin:miter;stroke-miterlimit:4;stroke-dasharray:none;stroke-dashoffset:0;stroke-opacity:1;color-rendering:auto;image-rendering:auto;shape-rendering:auto;text-rendering:auto;enable-background:accumulate" />
      <path
         sodipodi:nodetypes="cc"
         inkscape:connector-curvature="0"
         id="path4260-5"
         d="m -310.84429,410.72014 c 18.05864,2.03043 73.10405,12.98242 107.49658,46.8681"
         style="color:#000000;clip-rule:nonzero;display:inline;overflow:visible;visibility:visible;opacity:1;isolation:auto;mix-blend-mode:normal;color-interpolation:sRGB;color-interpolation-filters:linearRGB;solid-color:#000000;solid-opacity:1;fill:none;fill-opacity:1;fill-rule:evenodd;stroke:#000000;stroke-width:3;stroke-linecap:butt;stroke-linejoin:miter;stroke-miterlimit:4;stroke-dasharray:none;stroke-dashoffset:0;stroke-opacity:1;color-rendering:auto;image-rendering:auto;shape-rendering:auto;text-rendering:auto;enable-background:accumulate" />
      <path
         sodipodi:nodetypes="cscccc"
         inkscape:connector-curvature="0"
         id="path4243"
         d="m -376.26657,183.1107 c 0,0 -32.32491,-58.5889 -84.85284,-54.5482 -52.52794,4.0406 -57.65049,24.2436 -57.65049,24.2436 0,0 71.79262,42.4264 67.75201,113.1371 0,0 16.75392,-25.51371 37.46821,-25.51371 0,0 5.9948,-38.20901 37.28311,-57.31879 z"
         style="color:#000000;clip-rule:nonzero;display:inline;overflow:visible;visibility:visible;opacity:1;isolation:auto;mix-blend-mode:normal;color-interpolation:sRGB;color-interpolation-filters:linearRGB;solid-color:#000000;solid-opacity:1;fill:#925a34;fill-opacity:1;fill-rule:evenodd;stroke:#000000;stroke-width:3;stroke-linecap:butt;stroke-linejoin:miter;stroke-miterlimit:4;stroke-dasharray:none;stroke-dashoffset:0;stroke-opacity:1;color-rendering:auto;image-rendering:auto;shape-rendering:auto;text-rendering:auto;enable-background:accumulate" />
      <path
         sodipodi:nodetypes="cc"
         inkscape:connector-curvature="0"
         id="path4260"
         d="m -183.16515,325.82431 c 0,0 1.30537,42.22382 43.86312,75.80384"
         style="color:#000000;clip-rule:nonzero;display:inline;overflow:visible;visibility:visible;opacity:1;isolation:auto;mix-blend-mode:normal;color-interpolation:sRGB;color-interpolation-filters:linearRGB;solid-color:#000000;solid-opacity:1;fill:none;fill-opacity:1;fill-rule:evenodd;stroke:#000000;stroke-width:3;stroke-linecap:butt;stroke-linejoin:miter;stroke-miterlimit:4;stroke-dasharray:none;stroke-dashoffset:0;stroke-opacity:1;color-rendering:auto;image-rendering:auto;shape-rendering:auto;text-rendering:auto;enable-background:accumulate" />
      <path
         sodipodi:nodetypes="ccc"
         inkscape:connector-curvature="0"
         id="path4406"
         d="m -129.78935,424.53716 c 0,0 36.365497,86.8731 101.015197,93.9442 0,0 -86.873087,24.24364 -126.269037,-56.56857 z"
         style="color:#000000;clip-rule:nonzero;display:inline;overflow:visible;visibility:visible;opacity:1;isolation:auto;mix-blend-mode:normal;color-interpolation:sRGB;color-interpolation-filters:linearRGB;solid-color:#000000;solid-opacity:1;fill:#e6e6e6;fill-opacity:1;fill-rule:evenodd;stroke:#000000;stroke-width:3;stroke-linecap:butt;stroke-linejoin:miter;stroke-miterlimit:4;stroke-dasharray:none;stroke-dashoffset:0;stroke-opacity:1;color-rendering:auto;image-rendering:auto;shape-rendering:auto;text-rendering:auto;enable-background:accumulate" />
      <path
         inkscape:connector-curvature="0"
         id="path4346"
         d="m -346.17693,302.45827 c -3.85654,0.47504 -8.12087,0.58718 -12.58042,0.43203 a 6.5659914,6.0609155 3.2767196 0 0 -0.18075,1.10667 6.5659914,6.0609155 3.2767196 0 0 6.20926,6.42602 6.5659914,6.0609155 3.2767196 0 0 6.90209,-5.67536 6.5659914,6.0609155 3.2767196 0 0 -0.35018,-2.28936 z"
         style="opacity:1;fill:#1a1a1a;fill-opacity:1;stroke:#000000;stroke-width:2;stroke-miterlimit:4;stroke-dasharray:none;stroke-dashoffset:0;stroke-opacity:1" />
      <path
         inkscape:transform-center-y="-0.71420669"
         inkscape:transform-center-x="1.6925296e-005"
         inkscape:connector-curvature="0"
         id="path4346-4"
         d="m -163.11991,299.38037 c -3.80677,0.77926 -8.04884,1.22909 -12.50663,1.42794 a 6.0609155,6.5659914 88.730043 0 0 -0.0925,1.11752 6.0609155,6.5659914 88.730043 0 0 6.69911,5.91358 6.0609155,6.5659914 88.730043 0 0 6.43046,-6.20464 6.0609155,6.5659914 88.730043 0 0 -0.53049,-2.2544 z"
         style="opacity:1;fill:#1a1a1a;fill-opacity:1;stroke:#000000;stroke-width:2;stroke-miterlimit:4;stroke-dasharray:none;stroke-dashoffset:0;stroke-opacity:1" />
      <path
         sodipodi:nodetypes="cccc"
         inkscape:connector-curvature="0"
         id="path4400"
         d="m -226.0506,441.57161 c -59.65605,1.00626 -106.77863,-5.90684 -106.77863,-5.90684 0,0 -22.22417,-5.57178 -12.88023,-17.18855 30.13487,4.69547 55.84841,2.87314 83.59006,4.04059 0,0 34.76192,14.37098 36.0688,19.0548 z"
         style="color:#000000;clip-rule:nonzero;display:inline;overflow:visible;visibility:visible;opacity:1;isolation:auto;mix-blend-mode:normal;color-interpolation:sRGB;color-interpolation-filters:linearRGB;solid-color:#000000;solid-opacity:1;fill:#e6e6e6;fill-opacity:1;fill-rule:evenodd;stroke:#000000;stroke-width:3.13100004;stroke-linecap:butt;stroke-linejoin:miter;stroke-miterlimit:4;stroke-dasharray:none;stroke-dashoffset:0;stroke-opacity:1;color-rendering:auto;image-rendering:auto;shape-rendering:auto;text-rendering:auto;enable-background:accumulate" />
      <path
         inkscape:connector-curvature="0"
         id="path4279"
         d="m -188.65041,393.649 c 5.78741,0.0112 13.55618,-3.11736 18.16262,1.64864 4.32787,-3.88905 9.39897,-3.10949 14.58584,-3.11854 19.64132,7.64714 34.91225,25.67517 30.0959,38.22514 3.8e-4,19.92809 -15.44652,33.94049 -30.0959,33.94072 -5.7879,-0.0112 -9.98567,0.97394 -14.59229,-3.79286 -4.32755,3.88876 -10.82682,2.3949 -16.01331,2.40424 -14.64941,5.5e-4 -28.66822,-9.72557 -28.66837,-29.65371 -0.21043,-19.73254 -3.58084,-25.96054 26.52551,-39.65363 z"
         style="opacity:1;fill:#aa4400;fill-opacity:1;stroke:#000000;stroke-width:3;stroke-miterlimit:4;stroke-dasharray:none;stroke-dashoffset:0;stroke-opacity:1"
         sodipodi:nodetypes="ccccccccc" />
      <ellipse
         transform="matrix(0.99578523,0.09171577,-0.09171577,0.99578523,0,0)"
         ry="24.309135"
         rx="13.197456"
         cy="443.40674"
         cx="-108.26617"
         id="path4297"
         style="opacity:1;fill:#1a1a1a;fill-opacity:1;stroke:#000000;stroke-width:1.86905313;stroke-miterlimit:4;stroke-dasharray:none;stroke-dashoffset:0;stroke-opacity:1" />
      <ellipse
         transform="matrix(0.98927141,-0.14608928,0.14608928,0.98927141,0,0)"
         ry="24.3437"
         rx="14.364727"
         cy="398.45667"
         cx="-250.70677"
         id="path4297-6"
         style="opacity:1;fill:#1a1a1a;fill-opacity:1;stroke:#000000;stroke-width:1.79992282;stroke-miterlimit:4;stroke-dasharray:none;stroke-dashoffset:0;stroke-opacity:1" />
      <path
         sodipodi:nodetypes="ccc"
         inkscape:connector-curvature="0"
         id="path4379"
         d="m -331.81991,420.4965 c 0,0 -5.05075,130.30971 34.34515,139.40111 -3.60305,-0.0247 -57.52035,20.61657 -100.00505,-144.45183 36.36549,-12.12183 65.6599,5.05072 65.6599,5.05072 z"
         style="color:#000000;clip-rule:nonzero;display:inline;overflow:visible;visibility:visible;opacity:1;isolation:auto;mix-blend-mode:normal;color-interpolation:sRGB;color-interpolation-filters:linearRGB;solid-color:#000000;solid-opacity:1;fill:#e6e6e6;fill-opacity:1;fill-rule:evenodd;stroke:#000000;stroke-width:3;stroke-linecap:butt;stroke-linejoin:miter;stroke-miterlimit:4;stroke-dasharray:none;stroke-dashoffset:0;stroke-opacity:1;color-rendering:auto;image-rendering:auto;shape-rendering:auto;text-rendering:auto;enable-background:accumulate" />
      <path
         sodipodi:nodetypes="cc"
         inkscape:connector-curvature="0"
         id="path4433"
         d="m -370.6925,272.57231 c 0.0208,4.73602 239.98382,11.23277 255.71424,-10.7142"
         style="color:#000000;clip-rule:nonzero;display:inline;overflow:visible;visibility:visible;opacity:1;isolation:auto;mix-blend-mode:normal;color-interpolation:sRGB;color-interpolation-filters:linearRGB;solid-color:#000000;solid-opacity:1;fill:none;fill-opacity:1;fill-rule:evenodd;stroke:#000000;stroke-width:3;stroke-linecap:butt;stroke-linejoin:miter;stroke-miterlimit:4;stroke-dasharray:none;stroke-dashoffset:0;stroke-opacity:1;color-rendering:auto;image-rendering:auto;shape-rendering:auto;text-rendering:auto;enable-background:accumulate" />
      <path
         sodipodi:nodetypes="cc"
         inkscape:connector-curvature="0"
         id="path4435"
         d="m -364.9783,262.5724 c 3.28224,1.27512 194.94157,12.68154 237.85721,-5.71435"
         style="color:#000000;clip-rule:nonzero;display:inline;overflow:visible;visibility:visible;opacity:1;isolation:auto;mix-blend-mode:normal;color-interpolation:sRGB;color-interpolation-filters:linearRGB;solid-color:#000000;solid-opacity:1;fill:none;fill-opacity:1;fill-rule:evenodd;stroke:#000000;stroke-width:3;stroke-linecap:butt;stroke-linejoin:miter;stroke-miterlimit:4;stroke-dasharray:none;stroke-dashoffset:0;stroke-opacity:1;color-rendering:auto;image-rendering:auto;shape-rendering:auto;text-rendering:auto;enable-background:accumulate" />
      <path
         sodipodi:nodetypes="cc"
         inkscape:connector-curvature="0"
         id="path4437"
         d="m -357.83543,254.00088 c 0,0 171.42857,10.00003 217.14287,-2.85707"
         style="color:#000000;clip-rule:nonzero;display:inline;overflow:visible;visibility:visible;opacity:1;isolation:auto;mix-blend-mode:normal;color-interpolation:sRGB;color-interpolation-filters:linearRGB;solid-color:#000000;solid-opacity:1;fill:none;fill-opacity:1;fill-rule:evenodd;stroke:#000000;stroke-width:3;stroke-linecap:butt;stroke-linejoin:miter;stroke-miterlimit:4;stroke-dasharray:none;stroke-dashoffset:0;stroke-opacity:1;color-rendering:auto;image-rendering:auto;shape-rendering:auto;text-rendering:auto;enable-background:accumulate" />
      <path
         inkscape:connector-curvature="0"
         id="path4439"
         d="m -239.264,491.14381 c 0,0 2.8572,26.4285 -19.2857,24.2857"
         style="color:#000000;clip-rule:nonzero;display:inline;overflow:visible;visibility:visible;opacity:1;isolation:auto;mix-blend-mode:normal;color-interpolation:sRGB;color-interpolation-filters:linearRGB;solid-color:#000000;solid-opacity:1;fill:none;fill-opacity:1;fill-rule:evenodd;stroke:#000000;stroke-width:3;stroke-linecap:butt;stroke-linejoin:miter;stroke-miterlimit:4;stroke-dasharray:none;stroke-dashoffset:0;stroke-opacity:1;color-rendering:auto;image-rendering:auto;shape-rendering:auto;text-rendering:auto;enable-background:accumulate" />
      <path
         inkscape:connector-curvature="0"
         id="path4439-3"
         d="m -232.45207,488.98532 c 0,0 -2.8572,26.4285 19.2857,24.2857"
         style="color:#000000;clip-rule:nonzero;display:inline;overflow:visible;visibility:visible;opacity:1;isolation:auto;mix-blend-mode:normal;color-interpolation:sRGB;color-interpolation-filters:linearRGB;solid-color:#000000;solid-opacity:1;fill:none;fill-opacity:1;fill-rule:evenodd;stroke:#000000;stroke-width:3;stroke-linecap:butt;stroke-linejoin:miter;stroke-miterlimit:4;stroke-dasharray:none;stroke-dashoffset:0;stroke-opacity:1;color-rendering:auto;image-rendering:auto;shape-rendering:auto;text-rendering:auto;enable-background:accumulate" />
      <path
         sodipodi:nodetypes="cccccc"
         inkscape:connector-curvature="0"
         id="path4467"
         d="m -364.8997,119.14478 c 0,22.21592 -12.84647,72.2017 -12.84647,72.2017 0,0 75.65166,30.1502 114.90489,25.38965 0,0 72.08555,-3.25487 103.48812,-22.29709 0,0 -18.55843,-37.20983 -19.27212,-76.88111 -106.34054,-15.07508 -186.27442,1.58685 -186.27442,1.58685 z"
         style="color:#000000;clip-rule:nonzero;display:inline;overflow:visible;visibility:visible;opacity:1;isolation:auto;mix-blend-mode:normal;color-interpolation:sRGB;color-interpolation-filters:linearRGB;solid-color:#000000;solid-opacity:1;fill:#f9f9f9;fill-opacity:1;fill-rule:evenodd;stroke:#000000;stroke-width:3.16052103;stroke-linecap:butt;stroke-linejoin:miter;stroke-miterlimit:4;stroke-dasharray:none;stroke-dashoffset:0;stroke-opacity:1;color-rendering:auto;image-rendering:auto;shape-rendering:auto;text-rendering:auto;enable-background:accumulate" />
      <path
         inkscape:connector-curvature="0"
         id="path4469"
         d="m -364.9783,119.00092 c 0,0 83.5715,21.42857 185.7143,0"
         style="color:#000000;clip-rule:nonzero;display:inline;overflow:visible;visibility:visible;opacity:1;isolation:auto;mix-blend-mode:normal;color-interpolation:sRGB;color-interpolation-filters:linearRGB;solid-color:#000000;solid-opacity:1;fill:none;fill-opacity:1;fill-rule:evenodd;stroke:#000000;stroke-width:3;stroke-linecap:butt;stroke-linejoin:miter;stroke-miterlimit:4;stroke-dasharray:none;stroke-dashoffset:0;stroke-opacity:1;color-rendering:auto;image-rendering:auto;shape-rendering:auto;text-rendering:auto;enable-background:accumulate" />
      <path
         inkscape:connector-curvature="0"
         id="path4471"
         d="m -353.23567,157.68141 c 0,0 1.44439,21.94323 -5.57791,36.06747"
         style="color:#000000;clip-rule:nonzero;display:inline;overflow:visible;visibility:visible;opacity:1;isolation:auto;mix-blend-mode:normal;color-interpolation:sRGB;color-interpolation-filters:linearRGB;solid-color:#000000;solid-opacity:1;fill:none;fill-opacity:1;fill-rule:evenodd;stroke:#000000;stroke-width:3.10631752;stroke-linecap:butt;stroke-linejoin:miter;stroke-miterlimit:4;stroke-dasharray:none;stroke-dashoffset:0;stroke-opacity:1;color-rendering:auto;image-rendering:auto;shape-rendering:auto;text-rendering:auto;enable-background:accumulate" />
      <path
         inkscape:connector-curvature="0"
         id="path4471-0"
         d="m -327.93333,164.24459 c 0,0 2.47482,21.85103 -3.87541,36.2899"
         style="color:#000000;clip-rule:nonzero;display:inline;overflow:visible;visibility:visible;opacity:1;isolation:auto;mix-blend-mode:normal;color-interpolation:sRGB;color-interpolation-filters:linearRGB;solid-color:#000000;solid-opacity:1;fill:none;fill-opacity:1;fill-rule:evenodd;stroke:#000000;stroke-width:3.10631752;stroke-linecap:butt;stroke-linejoin:miter;stroke-miterlimit:4;stroke-dasharray:none;stroke-dashoffset:0;stroke-opacity:1;color-rendering:auto;image-rendering:auto;shape-rendering:auto;text-rendering:auto;enable-background:accumulate" />
      <path
         inkscape:connector-curvature="0"
         id="path4471-03"
         d="m -206.28305,166.55482 c 0,0 0.0384,21.62818 6.58029,35.18218"
         style="color:#000000;clip-rule:nonzero;display:inline;overflow:visible;visibility:visible;opacity:1;isolation:auto;mix-blend-mode:normal;color-interpolation:sRGB;color-interpolation-filters:linearRGB;solid-color:#000000;solid-opacity:1;fill:none;fill-opacity:1;fill-rule:evenodd;stroke:#000000;stroke-width:2.7920177;stroke-linecap:butt;stroke-linejoin:miter;stroke-miterlimit:4;stroke-dasharray:none;stroke-dashoffset:0;stroke-opacity:1;color-rendering:auto;image-rendering:auto;shape-rendering:auto;text-rendering:auto;enable-background:accumulate" />
      <path
         inkscape:connector-curvature="0"
         id="path4471-9"
         d="m -297.00391,170.64376 c 0,0 3.06842,21.77558 -2.88661,36.38189"
         style="color:#000000;clip-rule:nonzero;display:inline;overflow:visible;visibility:visible;opacity:1;isolation:auto;mix-blend-mode:normal;color-interpolation:sRGB;color-interpolation-filters:linearRGB;solid-color:#000000;solid-opacity:1;fill:none;fill-opacity:1;fill-rule:evenodd;stroke:#000000;stroke-width:3.10631752;stroke-linecap:butt;stroke-linejoin:miter;stroke-miterlimit:4;stroke-dasharray:none;stroke-dashoffset:0;stroke-opacity:1;color-rendering:auto;image-rendering:auto;shape-rendering:auto;text-rendering:auto;enable-background:accumulate" />
      <path
         inkscape:connector-curvature="0"
         id="path4471-6"
         d="m -265.23138,171.41634 c 0,0 -2.05551,21.89443 4.57032,36.20893"
         style="color:#000000;clip-rule:nonzero;display:inline;overflow:visible;visibility:visible;opacity:1;isolation:auto;mix-blend-mode:normal;color-interpolation:sRGB;color-interpolation-filters:linearRGB;solid-color:#000000;solid-opacity:1;fill:none;fill-opacity:1;fill-rule:evenodd;stroke:#000000;stroke-width:3.10631752;stroke-linecap:butt;stroke-linejoin:miter;stroke-miterlimit:4;stroke-dasharray:none;stroke-dashoffset:0;stroke-opacity:1;color-rendering:auto;image-rendering:auto;shape-rendering:auto;text-rendering:auto;enable-background:accumulate" />
      <path
         inkscape:connector-curvature="0"
         id="path4471-7"
         d="m -185.0294,165.34496 c 0,0 -0.62685,19.32518 8.45749,31.22317"
         style="color:#000000;clip-rule:nonzero;display:inline;overflow:visible;visibility:visible;opacity:1;isolation:auto;mix-blend-mode:normal;color-interpolation:sRGB;color-interpolation-filters:linearRGB;solid-color:#000000;solid-opacity:1;fill:none;fill-opacity:1;fill-rule:evenodd;stroke:#000000;stroke-width:3.18127203;stroke-linecap:butt;stroke-linejoin:miter;stroke-miterlimit:4;stroke-dasharray:none;stroke-dashoffset:0;stroke-opacity:1;color-rendering:auto;image-rendering:auto;shape-rendering:auto;text-rendering:auto;enable-background:accumulate" />
      <path
         sodipodi:nodetypes="cc"
         inkscape:connector-curvature="0"
         id="path4518"
         d="m -367.8354,136.85806 c 0,0 57.85711,29.28575 190.00001,2.14286"
         style="color:#000000;clip-rule:nonzero;display:inline;overflow:visible;visibility:visible;opacity:1;isolation:auto;mix-blend-mode:normal;color-interpolation:sRGB;color-interpolation-filters:linearRGB;solid-color:#000000;solid-opacity:1;fill:none;fill-opacity:1;fill-rule:evenodd;stroke:#000000;stroke-width:3;stroke-linecap:butt;stroke-linejoin:miter;stroke-miterlimit:4;stroke-dasharray:none;stroke-dashoffset:0;stroke-opacity:1;color-rendering:auto;image-rendering:auto;shape-rendering:auto;text-rendering:auto;enable-background:accumulate" />
      <path
         inkscape:connector-curvature="0"
         id="path4471-6-7"
         d="m -234.06504,170.72805 c 0,0 -1.74135,21.92166 5.08905,36.13968"
         style="color:#000000;clip-rule:nonzero;display:inline;overflow:visible;visibility:visible;opacity:1;isolation:auto;mix-blend-mode:normal;color-interpolation:sRGB;color-interpolation-filters:linearRGB;solid-color:#000000;solid-opacity:1;fill:none;fill-opacity:1;fill-rule:evenodd;stroke:#000000;stroke-width:3.10631752;stroke-linecap:butt;stroke-linejoin:miter;stroke-miterlimit:4;stroke-dasharray:none;stroke-dashoffset:0;stroke-opacity:1;color-rendering:auto;image-rendering:auto;shape-rendering:auto;text-rendering:auto;enable-background:accumulate" />
      <path
         sodipodi:nodetypes="cc"
         inkscape:connector-curvature="0"
         id="path4535"
         d="m -412.8354,239.71521 c 0,0 -40.71429,-87.85711 -105,-87.85711"
         style="color:#000000;clip-rule:nonzero;display:inline;overflow:visible;visibility:visible;opacity:1;isolation:auto;mix-blend-mode:normal;color-interpolation:sRGB;color-interpolation-filters:linearRGB;solid-color:#000000;solid-opacity:1;fill:none;fill-opacity:1;fill-rule:evenodd;stroke:#000000;stroke-width:3;stroke-linecap:butt;stroke-linejoin:miter;stroke-miterlimit:4;stroke-dasharray:none;stroke-dashoffset:0;stroke-opacity:1;color-rendering:auto;image-rendering:auto;shape-rendering:auto;text-rendering:auto;enable-background:accumulate" />
      <path
         inkscape:connector-curvature="0"
         id="path4537"
         d="m -243.06882,215.43022 c 0,0 22.21454,37.70706 49.99796,26.27767 27.7834,-11.42949 25.3822,-24.14091 25.3822,-24.14091 0,0 -18.90436,5.73842 -27.93259,-9.33356 z"
         style="color:#000000;clip-rule:nonzero;display:inline;overflow:visible;visibility:visible;opacity:1;isolation:auto;mix-blend-mode:normal;color-interpolation:sRGB;color-interpolation-filters:linearRGB;solid-color:#000000;solid-opacity:1;fill:#ffcc00;fill-opacity:1;fill-rule:evenodd;stroke:#000000;stroke-width:3;stroke-linecap:butt;stroke-linejoin:miter;stroke-miterlimit:4;stroke-dasharray:none;stroke-dashoffset:0;stroke-opacity:1;color-rendering:auto;image-rendering:auto;shape-rendering:auto;text-rendering:auto;enable-background:accumulate" />
      <path
         inkscape:connector-curvature="0"
         id="path4544"
         d="m -246.4068,411.14381 c 0,0 -0.7143,-47.8572 63.5714,-40.7143"
         style="color:#000000;clip-rule:nonzero;display:inline;overflow:visible;visibility:visible;opacity:1;isolation:auto;mix-blend-mode:normal;color-interpolation:sRGB;color-interpolation-filters:linearRGB;solid-color:#000000;solid-opacity:1;fill:none;fill-opacity:1;fill-rule:evenodd;stroke:#000000;stroke-width:1.79999995;stroke-linecap:butt;stroke-linejoin:miter;stroke-miterlimit:4;stroke-dasharray:none;stroke-dashoffset:0;stroke-opacity:1;color-rendering:auto;image-rendering:auto;shape-rendering:auto;text-rendering:auto;enable-background:accumulate" />
      <path
         inkscape:connector-curvature="0"
         id="path4544-8"
         d="m -268.75166,394.71195 c 0,0 -0.82443,-51.7732 73.37293,-44.04582"
         style="color:#000000;clip-rule:nonzero;display:inline;overflow:visible;visibility:visible;opacity:1;isolation:auto;mix-blend-mode:normal;color-interpolation:sRGB;color-interpolation-filters:linearRGB;solid-color:#000000;solid-opacity:1;fill:none;fill-opacity:1;fill-rule:evenodd;stroke:#000000;stroke-width:2.01135349;stroke-linecap:butt;stroke-linejoin:miter;stroke-miterlimit:4;stroke-dasharray:none;stroke-dashoffset:0;stroke-opacity:1;color-rendering:auto;image-rendering:auto;shape-rendering:auto;text-rendering:auto;enable-background:accumulate" />
      <path
         inkscape:connector-curvature="0"
         id="path4544-4"
         d="m -289.82738,382.57123 c 0,0 -0.98849,-63.72733 87.9738,-54.21574"
         style="color:#000000;clip-rule:nonzero;display:inline;overflow:visible;visibility:visible;opacity:1;isolation:auto;mix-blend-mode:normal;color-interpolation:sRGB;color-interpolation-filters:linearRGB;solid-color:#000000;solid-opacity:1;fill:none;fill-opacity:1;fill-rule:evenodd;stroke:#000000;stroke-width:2.44347286;stroke-linecap:butt;stroke-linejoin:miter;stroke-miterlimit:4;stroke-dasharray:none;stroke-dashoffset:0;stroke-opacity:1;color-rendering:auto;image-rendering:auto;shape-rendering:auto;text-rendering:auto;enable-background:accumulate" />
      <path
         sodipodi:nodetypes="cc"
         inkscape:connector-curvature="0"
         id="path4544-7"
         d="m -226.46044,424.46237 c 0.007,-0.0284 1.19151,-51.93312 55.81038,-37.99318"
         style="color:#000000;clip-rule:nonzero;display:inline;overflow:visible;visibility:visible;opacity:1;isolation:auto;mix-blend-mode:normal;color-interpolation:sRGB;color-interpolation-filters:linearRGB;solid-color:#000000;solid-opacity:1;fill:none;fill-opacity:1;fill-rule:evenodd;stroke:#000000;stroke-width:1.62921512;stroke-linecap:butt;stroke-linejoin:miter;stroke-miterlimit:4;stroke-dasharray:none;stroke-dashoffset:0;stroke-opacity:1;color-rendering:auto;image-rendering:auto;shape-rendering:auto;text-rendering:auto;enable-background:accumulate" />
      <path
         sodipodi:nodetypes="cccccccc"
         inkscape:connector-curvature="0"
         id="path4604"
         d="m -114.97826,237.92949 c 9.28572,12.85714 20.000004,17.5 20.000004,17.5 8.022044,4.34068 6.384265,9.03285 7.142857,9.28571 3.571429,17.14286 -7.142857,21.42858 -7.142857,21.42858 -62.142854,17.14285 -157.857144,15.71433 -157.857144,15.71433 -47.8571,3.5714 -133.5714,-2.8572 -133.5714,-2.8572 0,0 -19.28574,1e-5 -28.9286,-4.64285 0,0 -10,-5.71429 1.42857,-18.92857"
         style="color:#000000;clip-rule:nonzero;display:inline;overflow:visible;visibility:visible;opacity:1;isolation:auto;mix-blend-mode:normal;color-interpolation:sRGB;color-interpolation-filters:linearRGB;solid-color:#000000;solid-opacity:1;fill:none;fill-opacity:1;fill-rule:evenodd;stroke:#000000;stroke-width:3;stroke-linecap:butt;stroke-linejoin:miter;stroke-miterlimit:4;stroke-dasharray:none;stroke-dashoffset:0;stroke-opacity:1;color-rendering:auto;image-rendering:auto;shape-rendering:auto;text-rendering:auto;enable-background:accumulate" />
      <path
         sodipodi:nodetypes="cccccc"
         inkscape:connector-curvature="0"
         id="path4606"
         d="m -111.40687,288.46521 16.428599,-3.5714 c 0,0 10,-4.28576 5.3572,-22.50006 1.115017,0.83192 -1.640941,-4.428 -12.142899,-9.82141 0,0 -13.21428,-9.64286 -14.28571,-11.78571 z"
         style="color:#000000;clip-rule:nonzero;display:inline;overflow:visible;visibility:visible;opacity:1;isolation:auto;mix-blend-mode:normal;color-interpolation:sRGB;color-interpolation-filters:linearRGB;solid-color:#000000;solid-opacity:1;fill:#a05a2c;fill-opacity:1;fill-rule:evenodd;stroke:#000000;stroke-width:0;stroke-linecap:butt;stroke-linejoin:miter;stroke-miterlimit:4;stroke-dasharray:none;stroke-dashoffset:0;stroke-opacity:1;color-rendering:auto;image-rendering:auto;shape-rendering:auto;text-rendering:auto;enable-background:accumulate" />
      <path
         inkscape:connector-curvature="0"
         id="path4608"
         d="m -317.6778,428.57781 0,9.5964"
         style="color:#000000;clip-rule:nonzero;display:inline;overflow:visible;visibility:visible;opacity:1;isolation:auto;mix-blend-mode:normal;color-interpolation:sRGB;color-interpolation-filters:linearRGB;solid-color:#000000;solid-opacity:1;fill:none;fill-opacity:1;fill-rule:evenodd;stroke:#000000;stroke-width:3;stroke-linecap:butt;stroke-linejoin:miter;stroke-miterlimit:4;stroke-dasharray:none;stroke-dashoffset:0;stroke-opacity:1;color-rendering:auto;image-rendering:auto;shape-rendering:auto;text-rendering:auto;enable-background:accumulate" />
      <path
         inkscape:connector-curvature="0"
         id="path4608-2"
         d="m -298.98993,429.33549 0,9.5964"
         style="color:#000000;clip-rule:nonzero;display:inline;overflow:visible;visibility:visible;opacity:1;isolation:auto;mix-blend-mode:normal;color-interpolation:sRGB;color-interpolation-filters:linearRGB;solid-color:#000000;solid-opacity:1;fill:none;fill-opacity:1;fill-rule:evenodd;stroke:#000000;stroke-width:3;stroke-linecap:butt;stroke-linejoin:miter;stroke-miterlimit:4;stroke-dasharray:none;stroke-dashoffset:0;stroke-opacity:1;color-rendering:auto;image-rendering:auto;shape-rendering:auto;text-rendering:auto;enable-background:accumulate" />
      <path
         inkscape:connector-curvature="0"
         id="path4608-29"
         d="m -256.05844,430.85072 0,9.5964"
         style="color:#000000;clip-rule:nonzero;display:inline;overflow:visible;visibility:visible;opacity:1;isolation:auto;mix-blend-mode:normal;color-interpolation:sRGB;color-interpolation-filters:linearRGB;solid-color:#000000;solid-opacity:1;fill:none;fill-opacity:1;fill-rule:evenodd;stroke:#000000;stroke-width:3;stroke-linecap:butt;stroke-linejoin:miter;stroke-miterlimit:4;stroke-dasharray:none;stroke-dashoffset:0;stroke-opacity:1;color-rendering:auto;image-rendering:auto;shape-rendering:auto;text-rendering:auto;enable-background:accumulate" />
      <path
         inkscape:connector-curvature="0"
         id="path4608-4"
         d="m -277.27165,430.34564 0,9.5964"
         style="color:#000000;clip-rule:nonzero;display:inline;overflow:visible;visibility:visible;opacity:1;isolation:auto;mix-blend-mode:normal;color-interpolation:sRGB;color-interpolation-filters:linearRGB;solid-color:#000000;solid-opacity:1;fill:none;fill-opacity:1;fill-rule:evenodd;stroke:#000000;stroke-width:3;stroke-linecap:butt;stroke-linejoin:miter;stroke-miterlimit:4;stroke-dasharray:none;stroke-dashoffset:0;stroke-opacity:1;color-rendering:auto;image-rendering:auto;shape-rendering:auto;text-rendering:auto;enable-background:accumulate" />
      <path
         inkscape:connector-curvature="0"
         id="path4608-6"
         d="m -239.39093,431.86086 0,9.5964"
         style="color:#000000;clip-rule:nonzero;display:inline;overflow:visible;visibility:visible;opacity:1;isolation:auto;mix-blend-mode:normal;color-interpolation:sRGB;color-interpolation-filters:linearRGB;solid-color:#000000;solid-opacity:1;fill:none;fill-opacity:1;fill-rule:evenodd;stroke:#000000;stroke-width:3;stroke-linecap:butt;stroke-linejoin:miter;stroke-miterlimit:4;stroke-dasharray:none;stroke-dashoffset:0;stroke-opacity:1;color-rendering:auto;image-rendering:auto;shape-rendering:auto;text-rendering:auto;enable-background:accumulate" />
      <path
         transform="translate(-1427.8354,-856.30579)"
         inkscape:connector-curvature="0"
         id="path4643"
         d="m 978.58613,1108.7316 c -3.28952,-33.5511 -21.70327,-64.6888 -53.27064,-90.0806 -8.79906,-7.0777 -9.58807,-7.969 -7.05501,-7.969 3.99787,0 13.2474,2.5262 20.70146,5.6539 23.91951,10.0365 53.01998,40.0244 69.75576,71.883 l 3.8432,7.316 -2.9499,0 c -4.9911,0 -16.74395,6.6582 -23.81985,13.4945 l -6.55491,6.3329 -0.65011,-6.6307 z"
         style="opacity:1;fill:#784421;fill-opacity:1;stroke:#000000;stroke-width:1;stroke-miterlimit:4;stroke-dasharray:none;stroke-dashoffset:0;stroke-opacity:1" />
    </g>
    <g
       id="g4793"
       transform="translate(16.162441,2.0203051)">
      <ellipse
         ry="48.939556"
         rx="67.510986"
         cy="905.42957"
         cx="-665.69257"
         id="path4776"
         style="opacity:1;fill:#a05a2c;fill-opacity:1;stroke:#000000;stroke-width:3.69231272;stroke-miterlimit:4;stroke-dasharray:none;stroke-dashoffset:0;stroke-opacity:1" />
      <path
         sodipodi:nodetypes="cccccccc"
         inkscape:connector-curvature="0"
         id="path4689"
         d="m -558.84089,548.50482 c 0,0 36.27145,144.51737 -43.913,178.90013 0,0 -5.83512,124.91877 -7.55707,142.04351 -72.52987,53.7207 -130.48489,54.71029 -130.48489,54.71029 0,0 -58.93621,-63.2845 -49.9106,-194.60577 0,0 -14.91925,-81.5173 -7.43364,-215.70653 0,0 45.99882,-63.91852 125.70892,-46.17753 0,0 90.77604,6.39962 113.59028,80.8359 z"
         style="color:#000000;clip-rule:nonzero;display:inline;overflow:visible;visibility:visible;opacity:1;isolation:auto;mix-blend-mode:normal;color-interpolation:sRGB;color-interpolation-filters:linearRGB;solid-color:#000000;solid-opacity:1;fill:#f9f9f9;fill-opacity:1;fill-rule:evenodd;stroke:#000000;stroke-width:2.87578773;stroke-linecap:butt;stroke-linejoin:miter;stroke-miterlimit:4;stroke-dasharray:none;stroke-dashoffset:0;stroke-opacity:1;color-rendering:auto;image-rendering:auto;shape-rendering:auto;text-rendering:auto;enable-background:accumulate" />
    </g>
    <path
       style="color:#000000;clip-rule:nonzero;display:inline;overflow:visible;visibility:visible;opacity:1;isolation:auto;mix-blend-mode:normal;color-interpolation:sRGB;color-interpolation-filters:linearRGB;solid-color:#000000;solid-opacity:1;fill:none;fill-opacity:1;fill-rule:evenodd;stroke:#000000;stroke-width:3;stroke-linecap:butt;stroke-linejoin:miter;stroke-miterlimit:4;stroke-dasharray:none;stroke-dashoffset:0;stroke-opacity:1;color-rendering:auto;image-rendering:auto;shape-rendering:auto;text-rendering:auto;enable-background:accumulate"
       d="m -290.69257,616.14377 c 0,0 2.8572,62.8572 -55.71426,61.4286 0,0 -71.42857,5.71427 -145.71428,-7.14288"
       id="path4706"
       inkscape:connector-curvature="0" />
  </g>
</svg>
