<?xml version="1.0" encoding="UTF-8" standalone="no"?>
<!-- Created with Inkscape (http://www.inkscape.org/) -->

<svg
   xmlns:dc="http://purl.org/dc/elements/1.1/"
   xmlns:cc="http://creativecommons.org/ns#"
   xmlns:rdf="http://www.w3.org/1999/02/22-rdf-syntax-ns#"
   xmlns:svg="http://www.w3.org/2000/svg"
   xmlns="http://www.w3.org/2000/svg"
   xmlns:sodipodi="http://sodipodi.sourceforge.net/DTD/sodipodi-0.dtd"
   xmlns:inkscape="http://www.inkscape.org/namespaces/inkscape"
   width="210mm"
   height="297mm"
   viewBox="0 0 744.09448819 1052.3622047"
   id="svg2"
   version="1.1"
   inkscape:version="0.91 r13725"
   inkscape:export-filename="C:\Users\A\UnityWorkspace\MonstersKitchen\src\Monster's Kitchen\Assets\art\Door.png"
   inkscape:export-xdpi="90"
   inkscape:export-ydpi="90"
   sodipodi:docname="door.svg">
  <defs
     id="defs4" />
  <sodipodi:namedview
     id="base"
     pagecolor="#ffffff"
     bordercolor="#666666"
     borderopacity="1.0"
     inkscape:pageopacity="0.0"
     inkscape:pageshadow="2"
     inkscape:zoom="0.35"
     inkscape:cx="-52.142857"
     inkscape:cy="520"
     inkscape:document-units="px"
     inkscape:current-layer="layer1"
     showgrid="false"
     inkscape:window-width="1366"
     inkscape:window-height="705"
     inkscape:window-x="-8"
     inkscape:window-y="-8"
     inkscape:window-maximized="1" />
  <metadata
     id="metadata7">
    <rdf:RDF>
      <cc:Work
         rdf:about="">
        <dc:format>image/svg+xml</dc:format>
        <dc:type
           rdf:resource="http://purl.org/dc/dcmitype/StillImage" />
        <dc:title></dc:title>
      </cc:Work>
    </rdf:RDF>
  </metadata>
  <g
     inkscape:label="Layer 1"
     inkscape:groupmode="layer"
     id="layer1">
    <rect
       style="opacity:1;fill:#552200;fill-opacity:1;stroke:none"
       id="rect3336"
       width="817.14288"
       height="1142.8572"
       x="-25.714285"
       y="-36.209225" />
    <path
       style="opacity:1;fill:#000000;fill-opacity:1;stroke:none"
       id="path3342"
       d="m 104.60494,1175.5615 c 8.77888,-25.1113 16.29041,-50.6264 23.06091,-76.3435 10.25608,-35.9614 15.92551,-72.9107 21.63334,-109.78844 4.02993,-28.76401 7.94218,-57.54734 14.20202,-85.92328 6.68418,-23.51882 10.33194,-47.62348 11.49853,-72.0061 -0.46186,-26.43973 -2.03267,-52.84657 -2.9738,-79.27299 -0.8728,-29.70296 -0.50398,-59.42211 -1.04272,-89.13021 -0.42924,-31.29966 -2.72259,-62.52212 -4.01329,-93.78771 -1.11863,-26.19396 -1.63006,-52.40858 -1.80072,-78.62444 0.20283,-22.98982 -1.41573,-45.94036 -2.27338,-68.90353 -0.65618,-18.24988 -1.00566,-36.51052 -0.94368,-54.77208 0.35749,-21.56285 -0.0783,-43.1001 -0.93816,-64.64519 -0.65324,-21.98273 -2.38703,-43.91524 -4.53965,-65.79578 -1.8508,-16.90549 -3.84806,-33.77414 -5.05826,-50.74163 -0.64945,-13.9859 -1.65517,-27.9446 -4.08104,-41.74123 -1.67449,-7.86259 -2.56749,-15.841 -2.92621,-23.86298 0.27237,-13.99406 7.23002,-26.526946 13.83617,-38.463243 10.42188,-18.975248 22.41718,-37.072994 35.01061,-54.668282 10.75381,-15.627849 22.99102,-30.1206141 34.47286,-45.204906 9.04712,-11.055222 17.06214,-22.876797 24.74312,-34.903719 6.38617,-9.515156 12.03054,-19.408017 17.07275,-29.689089 5.85948,-10.463814 9.96776,-21.709281 14.54379,-32.751381 3.86381,-8.85503 7.82594,-17.66115 11.66701,-26.52551 0,0 38.09719,-17.32187 38.09719,-17.32187 l 0,0 c -4.48189,8.57916 -7.82675,17.75187 -12.0713,26.4574 -4.55556,11.18579 -9.01236,22.41506 -14.70824,33.096522 -4.94103,10.434625 -10.01686,20.719723 -16.8152,30.108998 -7.8116,12.275798 -15.92849,24.385145 -25.3103,35.535079 -11.59674,15.037061 -23.73595,29.6476545 -34.65323,45.188206 -12.90079,17.208395 -25.10562,35.060246 -35.06398,54.154307 -6.27196,11.057106 -12.8451,22.844299 -13.57847,35.806618 0.33579,7.9205 0.95952,15.81624 2.3287,23.63573 2.02106,14.04596 2.95082,28.22905 3.66295,42.39499 0.98663,17.01049 3.10716,33.89146 4.58725,50.85793 1.92934,22.04005 3.41337,44.12434 4.1443,66.23915 0.8514,21.47199 2.0408,42.92842 1.67999,64.42886 0.19006,18.27469 0.0907,36.55316 0.57986,54.8242 0.66411,23.06503 1.84554,46.12035 1.94644,69.19595 0.10245,26.286 0.12145,52.57766 1.04774,78.85145 1.2839,31.31909 3.11785,62.61273 3.83937,93.95287 0.8701,29.59669 0.53309,59.21678 1.57767,88.81259 0.83611,26.48385 2.58975,52.91497 3.41095,79.39418 -0.98423,24.57909 -4.29309,49.05533 -11.25769,72.70894 -6.99753,28.32361 -11.09215,57.25259 -15.19664,86.11403 -6.40991,36.99289 -12.12777,74.16749 -22.17472,110.40909 -6.00615,24.9261 -12.59488,49.7203 -19.35138,74.4354 0,0 -37.87146,18.2646 -37.87146,18.2646 z"
       inkscape:connector-curvature="0" />
    <path
       style="opacity:1;fill:#000000;fill-opacity:1;stroke:none"
       id="path3344"
       d="m 406.81733,-88.28956 c -0.0127,-16.44056 -10.77649,0.825251 37.8989,-20.96669 0.46832,-0.20966 -0.003,1.02745 0.0385,1.53886 0.0901,1.10107 0.23797,2.19665 0.35695,3.29498 0.11367,1.66268 0.22734,3.32536 0.341,4.988046 0.1152,1.945437 0.36832,3.8876 0.3456,5.836313 -0.11803,10.121347 -1.56507,20.320869 -2.63337,30.363918 -1.67393,15.736455 -1.21124,11.369175 -2.65171,27.890752 -3.26362,32.789554 -4.66584,65.712966 -5.39372,98.6433 -0.18046,22.58421 -2.09775,45.052151 -4.72683,67.461101 -2.60499,17.74393 -6.63961,35.22325 -9.20331,52.97379 -3.41841,21.43569 -6.19979,42.92334 -7.68369,64.58101 -1.29007,23.44595 -2.42328,46.90255 -4.71594,70.27542 -3.4112,29.35903 -4.61757,58.89781 -5.30411,88.4257 -1.03385,30.49134 0.17378,60.97602 1.38877,91.44011 0.86051,20.53428 1.56179,41.07354 1.702,61.62607 0.0634,20.66367 -0.0743,41.32682 -0.25295,61.98955 -1.09012,23.31687 2.67793,46.23329 7.72952,68.88093 5.6159,20.49295 11.39541,40.95688 17.63292,61.27174 6.50689,18.62882 13.4748,37.08225 19.72152,55.80073 5.45635,17.34342 9.92414,34.97131 15.00727,52.42527 4.25682,14.44632 9.68715,28.49612 12.85512,43.24327 2.14813,11.56604 1.94216,23.37217 2.08239,35.08446 0.36171,12.57375 -0.34206,25.07574 -2.75241,37.42198 -3.0936,11.7056 -6.59691,23.29717 -9.92717,34.93685 -2.69653,10.1291 -4.02794,20.5726 -5.50229,30.9367 -1.78432,14.7025 -2.05564,29.5352 -2.13722,44.3283 -0.23108,12.9951 0.60089,25.9874 -0.36953,38.9588 -1.0286,6.6113 -3.00247,12.9837 -3.95986,19.6148 -0.87792,6.2094 -2.77011,12.1877 -4.83453,18.0866 -1.81128,3.6682 -3.01335,7.495 -3.75992,11.5032 0,0 -37.87722,18.5884 -37.87722,18.5884 l 0,0 c 0.51528,-4.314 1.24007,-8.6074 3.31653,-12.4903 2.7789,-5.2933 4.08178,-11.3034 5.43446,-17.0847 0.79932,-6.7169 2.2285,-13.2646 4.39177,-19.6808 1.60756,-12.9658 1.2199,-26.0088 1.38236,-39.0558 0.19881,-14.8059 -0.14143,-29.6633 1.2249,-44.4218 1.24659,-10.5708 2.86949,-21.1656 5.25852,-31.5336 3.45187,-11.5544 6.84152,-23.125 10.1921,-34.70963 2.72153,-12.0367 3.6114,-24.29199 3.14166,-36.62847 -0.0174,-11.46566 -0.12246,-22.98793 -1.79832,-34.35368 -2.67011,-14.79961 -7.45454,-29.00563 -11.90558,-43.34414 -5.08749,-17.41252 -9.76362,-34.93922 -14.82094,-52.36028 -6.18719,-18.79307 -13.14152,-37.28971 -19.70321,-55.95057 -5.93595,-20.52551 -12.06298,-41.00066 -17.48481,-61.66421 -5.2008,-22.92871 -8.86538,-46.11323 -8.01106,-69.73066 -0.16969,-20.54449 -0.26069,-41.08917 -0.38148,-61.63402 -0.14308,-20.69864 -0.10224,-41.39955 -0.57648,-62.09463 -0.67156,-30.62474 -1.92318,-61.2487 -0.97539,-91.88418 0.63292,-29.45475 1.32374,-58.92835 4.30918,-88.26108 2.32387,-23.28495 3.34278,-46.68108 4.53473,-70.04622 1.4436,-21.66695 3.9757,-43.16655 7.18023,-64.64373 2.33929,-17.76319 6.08254,-35.24276 9.10081,-52.89429 3.27404,-22.49756 5.50672,-45.11669 6.40599,-67.841811 1.08094,-32.934548 2.64348,-65.848121 5.12314,-98.710548 1.03882,-16.977169 0.62297,-11.497534 1.90496,-27.611525 0.76567,-9.624109 1.84998,-19.387749 1.59626,-29.064002 -0.0494,-1.884511 -0.33915,-3.755032 -0.50873,-5.632548 -0.361,-2.685715 -0.58118,-5.016023 -1.20624,-7.609337 -0.17237,-0.715123 -1.2769,-1.733809 -0.64503,-2.110438 49.86184,-29.720311 37.8746,-33.808561 37.8989,-17.654221 0,0 -37.79391,19.25696 -37.79391,19.25696 z"
       inkscape:connector-curvature="0" />
    <path
       style="opacity:1;fill:#000000;fill-opacity:1;stroke:none"
       id="path3346"
       d="m 641.14225,1182.7773 c 1.27845,-23.5394 1.5449,-47.1267 1.87931,-70.6948 0.934,-56.6665 1.499,-113.33803 1.766,-170.01133 0.79527,-69.93785 -3.2858,-139.7691 -8.67511,-209.46356 -3.75254,-44.2393 -6.8403,-88.58368 -12.18723,-132.67185 -3.12974,-25.80631 -5.43124,-38.72007 -9.52369,-64.43694 C 604.84155,480.57564 589.91554,426.82 576.50533,372.76654 566.14224,329.64063 557.90167,286.04106 549.92001,242.42193 544.11652,205.07856 538.80658,167.63014 534.36647,130.09694 530.51954,97.34289 529.3582,64.370567 528.53769,31.428706 c -1.49382,-24.4765127 0.84476,-48.762435 5.32485,-72.791769 3.23516,-17.669946 8.54909,-34.800911 14.5851,-51.683308 1.72834,-5.34191 4.2616,-10.348239 6.65097,-15.408549 0,0 38.24103,-17.42673 38.24103,-17.42673 l 0,0 c -2.41532,5.23725 -5.61959,10.05898 -7.5568,15.51805 -6.92231,16.598037 -12.50337,33.827348 -15.88715,51.507803 -4.88036,23.891663 -7.63411,48.078912 -6.64699,72.518057 0.38935,32.94064 1.32359,65.912047 4.97034,98.68009 4.45289,37.54 9.11708,75.08655 14.88561,112.44543 7.21249,43.79695 16.06698,87.25699 25.60652,130.60531 12.55515,54.54968 27.14924,108.67995 36.09592,163.99744 1.75689,10.80688 3.73508,21.58009 5.27066,32.42063 2.07786,14.66889 6.13535,52.59802 7.71152,66.84704 3.61335,32.66567 6.72197,65.34657 8.78288,98.15489 4.5769,69.83967 8.81682,139.73264 8.64029,209.75583 0.26545,56.07345 0.82634,112.14518 1.766,168.21168 0.33012,22.9295 0.57713,45.8809 1.87931,68.7797 0,0 -37.7155,19.217 -37.7155,19.217 z"
       inkscape:connector-curvature="0" />
    <circle
       style="opacity:1;fill:#ffff00;fill-opacity:1;stroke:none"
       id="path3350"
       cx="654.28571"
       cy="580.93365"
       r="34.285713" />
  </g>
</svg>
